<svg width="116" height="29" viewBox="0 0 116 29" fill="none" xmlns="http://www.w3.org/2000/svg">
<path d="M19.8041 0H21.6144C28.5266 0 32.7416 2.34248 34.2594 7.02745C34.7531 8.58301 35 10.3856 35 12.4353V15.4549H19.8041V0ZM0 14.3294C0 12.3163 0.265151 10.4497 0.795455 8.72941C1.32576 6.99085 2.14864 5.4719 3.26411 4.17255C5.6779 1.39085 9.13401 0 13.6324 0H15.7445V28H14.3182C9.71003 28 6.1442 26.7373 3.62069 24.2118C1.2069 21.7961 0 18.502 0 14.3294ZM19.8041 20.8353H33.5188V21.6039C33.5188 23.3059 32.9062 24.7425 31.681 25.9137C30.1816 27.3046 28.0512 28 25.29 28H19.8041V20.8353Z" fill="white"/>
<path d="M60.824 18.92C60.824 19.96 60.536 20.8 59.96 21.44C59.4 22.064 58.656 22.52 57.728 22.808C56.816 23.096 55.84 23.24 54.8 23.24C53.408 23.24 52.184 22.984 51.128 22.472C50.088 21.944 49.272 21.184 48.68 20.192C48.104 19.2 47.816 18.016 47.816 16.64C47.816 15.28 48.088 14.104 48.632 13.112C49.192 12.12 49.976 11.36 50.984 10.832C51.992 10.288 53.176 10.016 54.536 10.016C56.52 10.016 58.088 10.568 59.24 11.672C60.408 12.76 60.992 14.296 60.992 16.28C60.992 16.456 60.984 16.64 60.968 16.832C60.968 17.024 60.96 17.216 60.944 17.408H51.848C51.912 18.064 52.048 18.696 52.256 19.304C52.48 19.912 52.8 20.408 53.216 20.792C53.632 21.16 54.16 21.344 54.8 21.344C55.312 21.344 55.72 21.248 56.024 21.056C56.344 20.864 56.576 20.584 56.72 20.216C56.864 19.848 56.936 19.416 56.936 18.92H60.824ZM54.536 11.912C53.928 11.912 53.432 12.088 53.048 12.44C52.68 12.776 52.408 13.224 52.232 13.784C52.056 14.328 51.936 14.912 51.872 15.536H57.2C57.2 14.864 57.112 14.256 56.936 13.712C56.776 13.168 56.504 12.736 56.12 12.416C55.736 12.08 55.208 11.912 54.536 11.912ZM75.5038 10.256L70.1278 23H66.9118L61.5358 10.256H65.7598L69.3358 19.232L73.1278 10.256H75.5038ZM88.8553 18.92C88.8553 19.96 88.5673 20.8 87.9913 21.44C87.4313 22.064 86.6873 22.52 85.7593 22.808C84.8473 23.096 83.8713 23.24 82.8313 23.24C81.4393 23.24 80.2153 22.984 79.1593 22.472C78.1193 21.944 77.3033 21.184 76.7113 20.192C76.1353 19.2 75.8473 18.016 75.8473 16.64C75.8473 15.28 76.1193 14.104 76.6633 13.112C77.2233 12.12 78.0073 11.36 79.0153 10.832C80.0233 10.288 81.2073 10.016 82.5673 10.016C84.5513 10.016 86.1193 10.568 87.2713 11.672C88.4393 12.76 89.0233 14.296 89.0233 16.28C89.0233 16.456 89.0153 16.64 88.9993 16.832C88.9993 17.024 88.9913 17.216 88.9753 17.408H79.8793C79.9433 18.064 80.0793 18.696 80.2873 19.304C80.5113 19.912 80.8313 20.408 81.2473 20.792C81.6633 21.16 82.1913 21.344 82.8313 21.344C83.3433 21.344 83.7513 21.248 84.0553 21.056C84.3753 20.864 84.6073 20.584 84.7513 20.216C84.8953 19.848 84.9673 19.416 84.9673 18.92H88.8553ZM82.5673 11.912C81.9593 11.912 81.4633 12.088 81.0793 12.44C80.7113 12.776 80.4393 13.224 80.2633 13.784C80.0873 14.328 79.9673 14.912 79.9033 15.536H85.2313C85.2313 14.864 85.1433 14.256 84.9673 13.712C84.8073 13.168 84.5353 12.736 84.1513 12.416C83.7673 12.08 83.2393 11.912 82.5673 11.912ZM100.668 10.208V13.232C100.188 13.104 99.6758 13.04 99.1318 13.04C98.5558 13.04 98.0198 13.112 97.5238 13.256C97.0278 13.384 96.6038 13.624 96.2518 13.976C95.9798 14.264 95.7638 14.632 95.6038 15.08C95.4438 15.512 95.3638 16.056 95.3638 16.712V23H91.4758V10.256H94.9798L95.3638 12.584C95.6358 11.624 96.1238 10.96 96.8278 10.592C97.5478 10.208 98.2998 10.016 99.0838 10.016C99.3878 10.016 99.6758 10.032 99.9478 10.064C100.22 10.096 100.46 10.144 100.668 10.208ZM115.345 10.256L107.953 28.136H105.577L107.401 23.672L101.233 10.256H105.553L109.417 19.208L112.921 10.256H115.345Z" fill="white"/>
</svg>
