<svg width="80" height="80" viewBox="0 0 80 80" fill="none" xmlns="http://www.w3.org/2000/svg">
<path d="M45.2665 8H49.4044C65.2038 8 74.838 13.3542 78.3072 24.0627C79.4357 27.6183 80 31.7386 80 36.4235V43.3255H45.2665V8ZM0 40.7529C0 36.1516 0.606061 31.885 1.81818 27.9529C3.0303 23.9791 4.91118 20.5072 7.46082 17.5373C12.9781 11.1791 20.8777 8 31.1599 8H35.9875V72H32.7273C22.1944 72 14.0439 69.1137 8.27586 63.3412C2.75862 57.8196 0 50.2902 0 40.7529ZM45.2665 55.6235H76.6144V57.3804C76.6144 61.2706 75.2142 64.5543 72.4138 67.2314C68.9864 70.4105 64.117 72 57.8056 72H45.2665V55.6235Z" fill="black"/>
</svg>
